<mxfile host="app.diagrams.net" modified="2020-09-27T03:37:07.729Z" agent="5.0 (Windows NT 10.0; Win64; x64) AppleWebKit/537.36 (KHTML, like Gecko) Chrome/85.0.4183.121 Safari/537.36" etag="mhc67FnajWu-mzjBiu8D" version="13.7.5" type="github">
  <diagram id="TDHyUCMjyRIzAP6PKNaP" name="Page-1">
    <mxGraphModel dx="2058" dy="2250" grid="1" gridSize="10" guides="1" tooltips="1" connect="1" arrows="1" fold="1" page="0" pageScale="1" pageWidth="850" pageHeight="1100" background="#FFFFFF" math="0" shadow="0">
      <root>
        <mxCell id="0" />
        <mxCell id="1" parent="0" />
        <mxCell id="KFjfBKIolWLs8-C2mn_r-21" value="Accounting Dept." style="whiteSpace=wrap;html=1;shadow=0;strokeColor=none;fillColor=#B4E090;imageAspect=0;verticalAlign=bottom;" parent="1" vertex="1">
          <mxGeometry x="-410" y="-860" width="455" height="380" as="geometry" />
        </mxCell>
        <mxCell id="KFjfBKIolWLs8-C2mn_r-20" value="Sales Dept." style="whiteSpace=wrap;html=1;shadow=0;fillColor=#ACCBE8;strokeColor=none;align=center;verticalAlign=bottom;" parent="1" vertex="1">
          <mxGeometry x="-810" y="-860" width="370" height="380" as="geometry" />
        </mxCell>
        <mxCell id="KFjfBKIolWLs8-C2mn_r-4" value="" style="endArrow=none;html=1;exitX=0.914;exitY=0.574;exitDx=0;exitDy=0;exitPerimeter=0;" parent="1" source="KFjfBKIolWLs8-C2mn_r-1" target="KFjfBKIolWLs8-C2mn_r-3" edge="1">
          <mxGeometry width="50" height="50" relative="1" as="geometry">
            <mxPoint x="-529.9960000000001" y="-909.1560000000002" as="sourcePoint" />
            <mxPoint x="-90" y="-900" as="targetPoint" />
            <Array as="points" />
          </mxGeometry>
        </mxCell>
        <mxCell id="KFjfBKIolWLs8-C2mn_r-1" value="Internet" style="shape=mxgraph.cisco.storage.cloud;html=1;pointerEvents=1;dashed=0;strokeColor=#ffffff;strokeWidth=2;verticalLabelPosition=middle;verticalAlign=middle;align=center;outlineConnect=0;labelPosition=center;fontColor=#FFFFFF;labelBorderColor=none;shadow=1;fillColor=#0373A8;" parent="1" vertex="1">
          <mxGeometry x="-748" y="-990" width="186" height="106" as="geometry" />
        </mxCell>
        <mxCell id="KFjfBKIolWLs8-C2mn_r-5" value="" style="endArrow=none;html=1;fontColor=#FFFFFF;entryX=0.455;entryY=0.535;entryDx=0;entryDy=0;entryPerimeter=0;" parent="1" target="KFjfBKIolWLs8-C2mn_r-3" edge="1" source="KFjfBKIolWLs8-C2mn_r-8">
          <mxGeometry width="50" height="50" relative="1" as="geometry">
            <mxPoint x="-410" y="-780" as="sourcePoint" />
            <mxPoint x="-370" y="-840" as="targetPoint" />
          </mxGeometry>
        </mxCell>
        <mxCell id="KFjfBKIolWLs8-C2mn_r-6" value="" style="endArrow=none;html=1;strokeColor=#000000;fontColor=#FFFFFF;shadow=0;" parent="1" source="KFjfBKIolWLs8-C2mn_r-13" edge="1">
          <mxGeometry width="50" height="50" relative="1" as="geometry">
            <mxPoint x="-270" y="-820" as="sourcePoint" />
            <mxPoint x="-160" y="-800" as="targetPoint" />
          </mxGeometry>
        </mxCell>
        <mxCell id="zB3IcBv8UcuTrQ9m1AZ4-3" value="" style="endArrow=none;html=1;fontColor=#FFFFFF;shadow=0;entryX=0.5;entryY=0;entryDx=0;entryDy=0;entryPerimeter=0;exitX=0.407;exitY=0.41;exitDx=0;exitDy=0;exitPerimeter=0;" edge="1" parent="1" source="KFjfBKIolWLs8-C2mn_r-3" target="KFjfBKIolWLs8-C2mn_r-13">
          <mxGeometry width="50" height="50" relative="1" as="geometry">
            <mxPoint x="-238.26086956521726" y="-890" as="sourcePoint" />
            <mxPoint x="-160" y="-800" as="targetPoint" />
          </mxGeometry>
        </mxCell>
        <mxCell id="KFjfBKIolWLs8-C2mn_r-3" value="" style="shape=mxgraph.cisco.routers.router;html=1;pointerEvents=1;strokeWidth=2;verticalLabelPosition=bottom;verticalAlign=top;align=center;outlineConnect=0;shadow=0;strokeColor=#FFFFFF;direction=east;fillColor=#0373A8;" parent="1" vertex="1">
          <mxGeometry x="-300" y="-940" width="80" height="50" as="geometry" />
        </mxCell>
        <mxCell id="zB3IcBv8UcuTrQ9m1AZ4-11" value="" style="endArrow=none;html=1;exitX=0.3;exitY=0.472;exitDx=0;exitDy=0;exitPerimeter=0;" edge="1" parent="1" source="KFjfBKIolWLs8-C2mn_r-7" target="KFjfBKIolWLs8-C2mn_r-8">
          <mxGeometry width="50" height="50" relative="1" as="geometry">
            <mxPoint x="-610" y="-700" as="sourcePoint" />
            <mxPoint x="-560" y="-750" as="targetPoint" />
          </mxGeometry>
        </mxCell>
        <mxCell id="KFjfBKIolWLs8-C2mn_r-7" value="Printer" style="shape=mxgraph.cisco.computers_and_peripherals.printer;html=1;pointerEvents=1;dashed=0;strokeColor=#ffffff;strokeWidth=2;verticalLabelPosition=bottom;verticalAlign=bottom;align=left;outlineConnect=0;shadow=0;fillColor=#0373A8;" parent="1" vertex="1">
          <mxGeometry x="-790" y="-819" width="100" height="39" as="geometry" />
        </mxCell>
        <mxCell id="zB3IcBv8UcuTrQ9m1AZ4-18" value="" style="endArrow=none;html=1;entryX=0.2;entryY=0.225;entryDx=0;entryDy=0;entryPerimeter=0;exitX=0.5;exitY=0.98;exitDx=0;exitDy=0;exitPerimeter=0;" edge="1" parent="1" source="KFjfBKIolWLs8-C2mn_r-8" target="KFjfBKIolWLs8-C2mn_r-11">
          <mxGeometry width="50" height="50" relative="1" as="geometry">
            <mxPoint x="-590" y="-650" as="sourcePoint" />
            <mxPoint x="-540" y="-700" as="targetPoint" />
          </mxGeometry>
        </mxCell>
        <mxCell id="KFjfBKIolWLs8-C2mn_r-11" value="PC" style="shape=mxgraph.cisco.computers_and_peripherals.workstation;html=1;pointerEvents=1;dashed=0;strokeColor=#ffffff;strokeWidth=2;verticalLabelPosition=bottom;verticalAlign=top;align=left;outlineConnect=0;shadow=0;fillColor=#0373A8;" parent="1" vertex="1">
          <mxGeometry x="-790" y="-678" width="100" height="80" as="geometry" />
        </mxCell>
        <mxCell id="zB3IcBv8UcuTrQ9m1AZ4-19" value="" style="endArrow=none;html=1;entryX=0.5;entryY=0.98;entryDx=0;entryDy=0;entryPerimeter=0;exitX=0.5;exitY=0;exitDx=0;exitDy=0;exitPerimeter=0;" edge="1" parent="1" source="zB3IcBv8UcuTrQ9m1AZ4-14" target="KFjfBKIolWLs8-C2mn_r-8">
          <mxGeometry width="50" height="50" relative="1" as="geometry">
            <mxPoint x="-710" y="-670" as="sourcePoint" />
            <mxPoint x="-660" y="-720" as="targetPoint" />
          </mxGeometry>
        </mxCell>
        <mxCell id="zB3IcBv8UcuTrQ9m1AZ4-14" value="PC" style="shape=mxgraph.cisco.computers_and_peripherals.workstation;html=1;pointerEvents=1;dashed=0;strokeColor=#ffffff;strokeWidth=2;verticalLabelPosition=bottom;verticalAlign=top;align=left;outlineConnect=0;shadow=0;fillColor=#0373A8;" vertex="1" parent="1">
          <mxGeometry x="-762" y="-663" width="100" height="80" as="geometry" />
        </mxCell>
        <mxCell id="zB3IcBv8UcuTrQ9m1AZ4-20" value="" style="endArrow=none;html=1;entryX=0.5;entryY=0.98;entryDx=0;entryDy=0;entryPerimeter=0;exitX=0.456;exitY=0.111;exitDx=0;exitDy=0;exitPerimeter=0;" edge="1" parent="1" source="zB3IcBv8UcuTrQ9m1AZ4-15" target="KFjfBKIolWLs8-C2mn_r-8">
          <mxGeometry width="50" height="50" relative="1" as="geometry">
            <mxPoint x="-640" y="-630" as="sourcePoint" />
            <mxPoint x="-590" y="-680" as="targetPoint" />
          </mxGeometry>
        </mxCell>
        <mxCell id="zB3IcBv8UcuTrQ9m1AZ4-15" value="PC" style="shape=mxgraph.cisco.computers_and_peripherals.workstation;html=1;pointerEvents=1;dashed=0;strokeColor=#ffffff;strokeWidth=2;verticalLabelPosition=bottom;verticalAlign=top;align=left;outlineConnect=0;shadow=0;fillColor=#0373A8;" vertex="1" parent="1">
          <mxGeometry x="-737" y="-647" width="100" height="80" as="geometry" />
        </mxCell>
        <mxCell id="zB3IcBv8UcuTrQ9m1AZ4-21" value="" style="endArrow=none;html=1;entryX=0.5;entryY=0.98;entryDx=0;entryDy=0;entryPerimeter=0;exitX=0.571;exitY=0.136;exitDx=0;exitDy=0;exitPerimeter=0;" edge="1" parent="1" source="zB3IcBv8UcuTrQ9m1AZ4-17" target="KFjfBKIolWLs8-C2mn_r-8">
          <mxGeometry width="50" height="50" relative="1" as="geometry">
            <mxPoint x="-600" y="-650" as="sourcePoint" />
            <mxPoint x="-550" y="-700" as="targetPoint" />
          </mxGeometry>
        </mxCell>
        <mxCell id="zB3IcBv8UcuTrQ9m1AZ4-17" value="&amp;nbsp; &amp;nbsp; &amp;nbsp; &amp;nbsp;PC" style="shape=mxgraph.cisco.computers_and_peripherals.workstation;html=1;pointerEvents=1;dashed=0;strokeColor=#ffffff;strokeWidth=2;verticalLabelPosition=bottom;verticalAlign=top;align=left;outlineConnect=0;shadow=0;fillColor=#0373A8;horizontal=1;labelPosition=center;" vertex="1" parent="1">
          <mxGeometry x="-715" y="-632" width="100" height="80" as="geometry" />
        </mxCell>
        <mxCell id="KFjfBKIolWLs8-C2mn_r-8" value="" style="shape=mxgraph.cisco.switches.workgroup_switch;html=1;pointerEvents=1;dashed=0;strokeColor=#ffffff;strokeWidth=2;verticalLabelPosition=bottom;verticalAlign=top;align=center;outlineConnect=0;shadow=0;fontColor=#FFFFFF;fillColor=#0373A8;" parent="1" vertex="1">
          <mxGeometry x="-580" y="-826" width="120" height="50" as="geometry" />
        </mxCell>
        <mxCell id="zB3IcBv8UcuTrQ9m1AZ4-23" value="" style="endArrow=none;html=1;entryX=0;entryY=0.5;entryDx=0;entryDy=0;entryPerimeter=0;exitX=0.964;exitY=0.384;exitDx=0;exitDy=0;exitPerimeter=0;" edge="1" parent="1" source="KFjfBKIolWLs8-C2mn_r-13" target="KFjfBKIolWLs8-C2mn_r-14">
          <mxGeometry width="50" height="50" relative="1" as="geometry">
            <mxPoint x="-160" y="-730" as="sourcePoint" />
            <mxPoint x="-110" y="-780" as="targetPoint" />
          </mxGeometry>
        </mxCell>
        <mxCell id="KFjfBKIolWLs8-C2mn_r-14" value="File server" style="shape=mxgraph.cisco.servers.fileserver;html=1;pointerEvents=1;dashed=0;strokeColor=#ffffff;strokeWidth=2;verticalLabelPosition=bottom;verticalAlign=top;align=center;outlineConnect=0;shadow=0;fillColor=#0373A8;fontColor=#00000;" parent="1" vertex="1">
          <mxGeometry x="-20" y="-847" width="43" height="62" as="geometry" />
        </mxCell>
        <mxCell id="zB3IcBv8UcuTrQ9m1AZ4-31" value="" style="endArrow=none;html=1;fontColor=#00000;entryX=0.5;entryY=0.98;entryDx=0;entryDy=0;entryPerimeter=0;exitX=0.352;exitY=0.175;exitDx=0;exitDy=0;exitPerimeter=0;" edge="1" parent="1" source="zB3IcBv8UcuTrQ9m1AZ4-27" target="KFjfBKIolWLs8-C2mn_r-13">
          <mxGeometry width="50" height="50" relative="1" as="geometry">
            <mxPoint x="-330" y="-710" as="sourcePoint" />
            <mxPoint x="-280" y="-760" as="targetPoint" />
          </mxGeometry>
        </mxCell>
        <mxCell id="zB3IcBv8UcuTrQ9m1AZ4-27" value="PC" style="shape=mxgraph.cisco.computers_and_peripherals.workstation;html=1;pointerEvents=1;dashed=0;strokeColor=#ffffff;strokeWidth=2;verticalLabelPosition=bottom;verticalAlign=top;align=left;outlineConnect=0;shadow=0;fillColor=#0373A8;horizontal=1;labelPosition=center;" vertex="1" parent="1">
          <mxGeometry x="-400" y="-690" width="100" height="80" as="geometry" />
        </mxCell>
        <mxCell id="KFjfBKIolWLs8-C2mn_r-13" value="" style="shape=mxgraph.cisco.switches.workgroup_switch;html=1;pointerEvents=1;dashed=0;strokeWidth=2;verticalLabelPosition=bottom;verticalAlign=top;align=center;outlineConnect=0;shadow=0;fontColor=#FFFFFF;fillColor=#0373A8;strokeColor=#ffff;" parent="1" vertex="1">
          <mxGeometry x="-260" y="-835" width="120" height="53" as="geometry" />
        </mxCell>
        <mxCell id="zB3IcBv8UcuTrQ9m1AZ4-32" value="" style="endArrow=none;html=1;fontColor=#00000;entryX=0.5;entryY=0.98;entryDx=0;entryDy=0;entryPerimeter=0;exitX=0.5;exitY=0;exitDx=0;exitDy=0;exitPerimeter=0;" edge="1" parent="1" source="zB3IcBv8UcuTrQ9m1AZ4-26" target="KFjfBKIolWLs8-C2mn_r-13">
          <mxGeometry width="50" height="50" relative="1" as="geometry">
            <mxPoint x="-240" y="-710" as="sourcePoint" />
            <mxPoint x="-190" y="-760" as="targetPoint" />
          </mxGeometry>
        </mxCell>
        <mxCell id="zB3IcBv8UcuTrQ9m1AZ4-26" value="PC" style="shape=mxgraph.cisco.computers_and_peripherals.workstation;html=1;pointerEvents=1;dashed=0;strokeColor=#ffffff;strokeWidth=2;verticalLabelPosition=bottom;verticalAlign=top;align=left;outlineConnect=0;shadow=0;fillColor=#0373A8;horizontal=1;labelPosition=center;" vertex="1" parent="1">
          <mxGeometry x="-370" y="-678" width="100" height="80" as="geometry" />
        </mxCell>
        <mxCell id="zB3IcBv8UcuTrQ9m1AZ4-33" value="" style="endArrow=none;html=1;fontColor=#00000;entryX=0.5;entryY=0.98;entryDx=0;entryDy=0;entryPerimeter=0;exitX=0.5;exitY=0;exitDx=0;exitDy=0;exitPerimeter=0;" edge="1" parent="1" source="zB3IcBv8UcuTrQ9m1AZ4-28" target="KFjfBKIolWLs8-C2mn_r-13">
          <mxGeometry width="50" height="50" relative="1" as="geometry">
            <mxPoint x="-240" y="-710" as="sourcePoint" />
            <mxPoint x="-190" y="-760" as="targetPoint" />
          </mxGeometry>
        </mxCell>
        <mxCell id="zB3IcBv8UcuTrQ9m1AZ4-28" value="&amp;nbsp; &amp;nbsp; &amp;nbsp; &amp;nbsp;PC" style="shape=mxgraph.cisco.computers_and_peripherals.workstation;html=1;pointerEvents=1;dashed=0;strokeColor=#ffffff;strokeWidth=2;verticalLabelPosition=bottom;verticalAlign=top;align=left;outlineConnect=0;shadow=0;fillColor=#0373A8;horizontal=1;labelPosition=center;" vertex="1" parent="1">
          <mxGeometry x="-339" y="-664" width="100" height="80" as="geometry" />
        </mxCell>
        <mxCell id="zB3IcBv8UcuTrQ9m1AZ4-34" value="" style="endArrow=none;html=1;fontColor=#00000;entryX=0.87;entryY=0.74;entryDx=0;entryDy=0;entryPerimeter=0;exitX=0.5;exitY=0;exitDx=0;exitDy=0;exitPerimeter=0;" edge="1" parent="1" source="zB3IcBv8UcuTrQ9m1AZ4-29" target="KFjfBKIolWLs8-C2mn_r-13">
          <mxGeometry width="50" height="50" relative="1" as="geometry">
            <mxPoint x="-240" y="-710" as="sourcePoint" />
            <mxPoint x="-190" y="-760" as="targetPoint" />
          </mxGeometry>
        </mxCell>
        <mxCell id="zB3IcBv8UcuTrQ9m1AZ4-29" value="PC" style="shape=mxgraph.cisco.computers_and_peripherals.workstation;html=1;pointerEvents=1;dashed=0;strokeColor=#ffffff;strokeWidth=2;verticalLabelPosition=bottom;verticalAlign=top;align=left;outlineConnect=0;shadow=0;fillColor=#0373A8;horizontal=1;labelPosition=center;" vertex="1" parent="1">
          <mxGeometry x="-150" y="-690" width="100" height="80" as="geometry" />
        </mxCell>
        <mxCell id="zB3IcBv8UcuTrQ9m1AZ4-35" value="" style="endArrow=none;html=1;fontColor=#00000;entryX=0.87;entryY=0.74;entryDx=0;entryDy=0;entryPerimeter=0;exitX=0.5;exitY=0;exitDx=0;exitDy=0;exitPerimeter=0;" edge="1" parent="1" source="zB3IcBv8UcuTrQ9m1AZ4-30" target="KFjfBKIolWLs8-C2mn_r-13">
          <mxGeometry width="50" height="50" relative="1" as="geometry">
            <mxPoint x="-210" y="-650" as="sourcePoint" />
            <mxPoint x="-160" y="-700" as="targetPoint" />
          </mxGeometry>
        </mxCell>
        <mxCell id="zB3IcBv8UcuTrQ9m1AZ4-30" value="&amp;nbsp; &amp;nbsp; &amp;nbsp; &amp;nbsp;PC" style="shape=mxgraph.cisco.computers_and_peripherals.workstation;html=1;pointerEvents=1;dashed=0;strokeColor=#ffffff;strokeWidth=2;verticalLabelPosition=bottom;verticalAlign=top;align=left;outlineConnect=0;shadow=0;fillColor=#0373A8;horizontal=1;labelPosition=center;" vertex="1" parent="1">
          <mxGeometry x="-108" y="-677" width="100" height="80" as="geometry" />
        </mxCell>
      </root>
    </mxGraphModel>
  </diagram>
</mxfile>
